D:\school\WTK\thesis\model\3dpredictsim\Results\debug_batch\Pog_s1_tmt_bCst_d05_k2000_ig24_pas_GRF.mot
nRows=12
nColumns=19

name D:\school\WTK\thesis\model\3dpredictsim\Results\debug_batch\Pog_s1_tmt_bCst_d05_k2000_ig24_pas_GRF.mot
datacolumns 19
datarows 12
range 0.0000000000 0.1211249265
endheader
time 	ground_force_vx	ground_force_vy	ground_force_vz	ground_force_px	ground_force_py	ground_force_pz	1_ground_force_vx	1_ground_force_vy	1_ground_force_vz	1_ground_force_px	1_ground_force_py	1_ground_force_pz	ground_torque_x	ground_torque_y	ground_torque_z	1_ground_torque_x	1_ground_torque_y	1_ground_torque_z
        0.0000000000	      -73.3785078841	       58.2508344327	       24.5920872025	        0.1764782875	        0.0000000000	        0.0393445158	      101.6183220344	      547.4366350378	       -2.4891767951	       -0.3057251401	        0.0000000000	       -0.0374680240	        0.0000000000	        0.0000000000	        0.0000000000	        0.0000000000	        0.0000000000	        0.0000000000	
        0.0110113570	     -116.3759540013	      128.5145782699	       63.6569888826	        0.1843350184	        0.0000000000	        0.0370433640	       88.6616702930	      474.6989589962	       -6.0367477498	       -0.3029440400	        0.0000000000	       -0.0368174725	        0.0000000000	        0.0000000000	        0.0000000000	        0.0000000000	        0.0000000000	        0.0000000000	
        0.0220227139	      -44.4801173476	      253.0185419975	       33.8892004401	        0.1899204072	        0.0000000000	        0.0346533790	       73.3174266022	      390.7394516307	       -8.1616102475	       -0.2988595820	        0.0000000000	       -0.0355932933	        0.0000000000	        0.0000000000	        0.0000000000	        0.0000000000	        0.0000000000	        0.0000000000	
        0.0330340709	      -33.7887028949	      389.8039066920	        5.2192351582	        0.1928638217	        0.0000000000	        0.0342289509	       56.1078565336	      305.6284076641	       -4.4049939267	       -0.2927796447	        0.0000000000	       -0.0333050996	        0.0000000000	        0.0000000000	        0.0000000000	        0.0000000000	        0.0000000000	        0.0000000000	
        0.0440454278	      -58.5471104767	      541.3413156725	       -3.1264148558	        0.1989666771	        0.0000000000	        0.0359243345	       28.0216124716	      209.7038729278	       -5.9253733155	       -0.2817835153	        0.0000000000	       -0.0286422887	        0.0000000000	        0.0000000000	        0.0000000000	        0.0000000000	        0.0000000000	        0.0000000000	
        0.0550567848	      -87.1676277492	      686.9995173235	       -8.3243375179	        0.2061903667	        0.0000000000	        0.0381669802	        9.9843979086	      140.3921362768	      -11.7642784511	       -0.2670985439	        0.0000000000	       -0.0216138727	        0.0000000000	        0.0000000000	        0.0000000000	        0.0000000000	        0.0000000000	        0.0000000000	
        0.0660681417	     -102.1875179658	      772.8967352782	      -10.6106122497	        0.2112939616	        0.0000000000	        0.0396189050	        2.8603960231	      116.3991692423	      -13.0389511805	       -0.2674215506	        0.0000000000	       -0.0219329423	        0.0000000000	        0.0000000000	        0.0000000000	        0.0000000000	        0.0000000000	        0.0000000000	
        0.0770794987	     -103.0979015205	      801.1575525920	      -11.5725247074	        0.2149625242	        0.0000000000	        0.0405246439	        0.5603884033	       83.6075778316	      -13.2090761850	       -0.2668335923	        0.0000000000	       -0.0220211048	        0.0000000000	        0.0000000000	        0.0000000000	        0.0000000000	        0.0000000000	        0.0000000000	
        0.0880908557	      -97.2862703845	      796.4620767118	      -11.3254096317	        0.2179833495	        0.0000000000	        0.0410965798	       -4.6243796945	       46.2094661645	      -10.2325123531	       -0.2665604946	        0.0000000000	       -0.0219926816	        0.0000000000	        0.0000000000	        0.0000000000	        0.0000000000	        0.0000000000	        0.0000000000	
        0.0991022126	      -89.6389601416	      783.4742107464	      -12.0815831632	        0.2210836984	        0.0000000000	        0.0414048942	       -5.7645951335	        8.3704729750	       -1.9208044548	        0.0000000000	        0.0000000000	        0.0000000000	        0.0000000000	        0.0000000000	        0.0000000000	        0.0000000000	        0.0000000000	        0.0000000000	
        0.1101135696	      -79.4719532731	      766.7377329461	      -13.4350573219	        0.2243415459	        0.0000000000	        0.0415497272	        0.0011941739	       -0.0010668327	       -0.0000210314	        0.0000000000	        0.0000000000	        0.0000000000	        0.0000000000	        0.0000000000	        0.0000000000	        0.0000000000	        0.0000000000	        0.0000000000	
        0.1211249265	      -68.9125490375	      743.6336044493	      -14.1993130518	        0.2280934201	        0.0000000000	        0.0416268299	        0.0000573452	       -0.0000434566	       -0.0000032509	        0.0000000000	        0.0000000000	        0.0000000000	        0.0000000000	        0.0000000000	        0.0000000000	        0.0000000000	        0.0000000000	        0.0000000000	
